# xmcd
#
# Track frame offsets:
#	150
#	14332
#	26128
#	36518
#	49329
#	59172
#	71740
#	83711
#	101810
#	113813
#	125831
#	137833
#
# Disc length: 2005 seconds
#
# Revision: 1
# Processed by: cddbd v1.5.2PL0 Copyright (c) Steve Scherf et al.
# Submitted via: audiograbber 1.83.01
#
DISCID=ba07d30c
DTITLE=Kai Warner - Summer Dancing
DYEAR=1968
DGENRE=Instrumental
TTITLE0=01 Silence is golden
TTITLE1=02 Blue Hawaii
TTITLE2=03 Santa Lucia
TTITLE3=04 Mem'ries of Napoli
TTITLE4=05 Arrivederci Roma
TTITLE5=06 Magic is the moonlight
TTITLE6=07 Dancing on the shore
TTITLE7=08 A whiter shade of pale
TTITLE8=09 Gringo
TTITLE9=10 lotar's theme
TTITLE10=11 Maria-Marie
TTITLE11=12 Jungle Drums
EXTD=
EXTT0=
EXTT1=
EXTT2=
EXTT3=
EXTT4=
EXTT5=
EXTT6=
EXTT7=
EXTT8=
EXTT9=
EXTT10=
EXTT11=
PLAYORDER=
